<svg id="Layer_1" data-name="Layer 1" xmlns="http://www.w3.org/2000/svg" viewBox="0 0 488.42 273.72"><defs><style>.cls-1{fill:#00aeef;}.cls-2{fill:#231f20;}.cls-3{fill:#fff;}</style></defs><title>rolltrax1</title><path class="cls-1" d="M25.08,75.72h20l1.53,10.11a47.73,47.73,0,0,1,10-8.78,20.6,20.6,0,0,1,11-2.86,20.05,20.05,0,0,1,5,.57L70.89,97.86a19.62,19.62,0,0,0-6.1-.95A16.1,16.1,0,0,0,56.57,99,44.86,44.86,0,0,0,48,106.07v65.08H25.08Z" transform="translate(-25.08 -28)"/><path class="cls-1" d="M94,166.39a42.84,42.84,0,0,1-14.6-17.94,60,60,0,0,1-5.06-24.82,59.88,59.88,0,0,1,5.06-24.81A42.84,42.84,0,0,1,94,80.88q9.54-6.69,22.52-6.68a38.67,38.67,0,0,1,22.62,6.68,42.6,42.6,0,0,1,14.7,17.94,59.88,59.88,0,0,1,5.06,24.81,60,60,0,0,1-5.06,24.82,42.6,42.6,0,0,1-14.7,17.94,38.67,38.67,0,0,1-22.62,6.68Q103.52,173.07,94,166.39ZM130.53,146q5.06-8.39,5.06-22.34t-5.06-22.32q-5.06-8.41-14-8.4-8.78,0-13.84,8.5T97.6,123.63q0,13.75,5.06,22.24t13.84,8.5Q125.47,154.37,130.53,146Z" transform="translate(-25.08 -28)"/><path class="cls-1" d="M177.49,166.39q-5.24-6.69-5.25-18.33V28h22.91V140.23c0,5.34.54,8.92,1.62,10.69s3.4,2.69,7,2.69l-1.91,19.46h-8.59Q182.75,173.07,177.49,166.39Z" transform="translate(-25.08 -28)"/><path class="cls-1" d="M221,166.39q-5.24-6.69-5.25-18.33V28h22.91V140.23c0,5.34.54,8.92,1.62,10.69s3.4,2.69,7,2.69l-1.91,19.46h-8.59Q226.25,173.07,221,166.39Z" transform="translate(-25.08 -28)"/><path class="cls-2" d="M268.91,166.76q-5.82-6.29-5.82-18.7V95.19H252.4l2.1-19.46h8.58v-21L286,52.25V75.72H302.6V95.19H286v47c0,3.95.79,6.85,2.38,8.68s4.1,2.78,7.54,2.78h6.87l-2.1,19.46H285.61Q274.74,173.07,268.91,166.76Z" transform="translate(-25.08 -28)"/><path class="cls-2" d="M315,75.72h20l1.53,10.11a47.73,47.73,0,0,1,10-8.78,20.6,20.6,0,0,1,11-2.86,20.05,20.05,0,0,1,5,.57l-1.72,23.08a19.62,19.62,0,0,0-6.1-.95A16.1,16.1,0,0,0,346.5,99a44.86,44.86,0,0,0-8.59,7.07v65.08H315Z" transform="translate(-25.08 -28)"/><path class="cls-2" d="M369.88,166.1q-7.35-7-7.35-19.56,0-13.16,7.92-21.09a45.87,45.87,0,0,1,18.32-11.35,71.29,71.29,0,0,1,19-3.82q0-8.39-3.05-12c-2-2.42-5.53-3.62-10.49-3.62a34.16,34.16,0,0,0-11.08,1.8,79.75,79.75,0,0,0-12,5.44l-1.53-19.28q15.27-8.39,30.73-8.39,14.32,0,22.43,8.5t8.11,26.81v28.81a65.86,65.86,0,0,0,.57,10.31q.57,3.24,1.81,4.1a7,7,0,0,0,3.91.87h3.05l-1.52,19.46H428.57A18.94,18.94,0,0,1,418.36,170a18.47,18.47,0,0,1-7.15-8,39.31,39.31,0,0,1-10.5,8.31,27.65,27.65,0,0,1-12.78,2.76A25.18,25.18,0,0,1,369.88,166.1Zm38.08-18V126.3a33.17,33.17,0,0,0-15.27,5.45q-6.12,4.29-6.11,12.49,0,5.55,2.49,8.12a8.88,8.88,0,0,0,6.68,2.58Q402.23,154.94,408,148.06Z" transform="translate(-25.08 -28)"/><rect class="cls-1" x="320.59" y="158.12" width="115.6" height="115.6"/><rect class="cls-3" x="337.09" y="174.63" width="82.58" height="82.58"/><path class="cls-2" d="M468.64,123.21,445.32,74.62h21.16l12.35,28.21,12.34-28.21h21.16l-23.71,48.59,24.89,50.74H492.34l-13.51-30.36Z" transform="translate(-25.08 -28)"/><polygon class="cls-2" points="443.56 95.2 380.75 226.67 363.21 188.3 342.06 188.3 371.04 249.12 391.01 249.12 453.75 115.58 443.56 95.2"/></svg>
